<?xml version="1.0" encoding="utf-8"?>
<!-- Generator: Adobe Illustrator 25.0.1, SVG Export Plug-In . SVG Version: 6.00 Build 0)  -->
<svg version="1.1" id="Calque_1" xmlns="http://www.w3.org/2000/svg" xmlns:xlink="http://www.w3.org/1999/xlink" x="0px" y="0px"
	 viewBox="0 0 1920 1080" style="enable-background:new 0 0 1920 1080;" xml:space="preserve">
<style type="text/css">
	.st0{fill:url(#SVGID_1_);}
	.st1{fill:#754A64;}
	.st2{fill:#3C5F7C;}
	.st3{fill:#3F2C36;}
	.st4{fill:#33556D;}
	.st5{fill:#151C30;}
	.st6{fill:#101721;}
	.st7{fill:#805066;}
	.st8{fill:#212C44;}
	.st9{fill:#111828;}
	.st10{fill:#101726;}
	.st11{fill:#222642;}
	.st12{fill:#273250;}
	.st13{fill:#E4DDCC;}
	.st14{fill:#FEF9C8;}
	.st15{fill:#4D7087;}
	.st16{fill:#608396;}
	.st17{fill:#F88063;}
	.st18{fill:#FCE1D9;}
	.st19{fill:#0B111E;}
	.st20{fill:#F4DFBB;}
	.st21{fill:#E0CEB6;}
</style>
<linearGradient id="SVGID_1_" gradientUnits="userSpaceOnUse" x1="961.9088" y1="-264.8695" x2="961.9088" y2="1066.1732">
	<stop  offset="0" style="stop-color:#17122A"/>
	<stop  offset="0.1372" style="stop-color:#071134"/>
	<stop  offset="0.1878" style="stop-color:#001038"/>
	<stop  offset="0.2536" style="stop-color:#10193E"/>
	<stop  offset="0.3822" style="stop-color:#3A314C"/>
	<stop  offset="0.5608" style="stop-color:#7D5964"/>
	<stop  offset="0.7536" style="stop-color:#CD8780"/>
	<stop  offset="0.8065" style="stop-color:#D5978B"/>
	<stop  offset="0.9092" style="stop-color:#E8C0A8"/>
	<stop  offset="0.9401" style="stop-color:#EFCEB1"/>
</linearGradient>
<rect x="2" y="-264.87" class="st0" width="1919.82" height="1331.04"/>
<polygon class="st1" points="308.33,605.29 623.51,500.71 920.14,671.89 1240.25,497.71 1485.56,657.08 1704.74,466.81 
	1915.27,631.05 1915.27,723.82 380.62,723.82 "/>
<polygon class="st1" points="585.37,592.97 357.83,652.06 399.11,717.09 961.91,716.2 "/>
<polygon class="st2" points="359.8,719.09 1588.66,717.67 1505.8,828.33 971.5,872.1 434.85,828.37 "/>
<g>
	<polygon class="st3" points="939.8,702.89 953.72,709.38 960.75,704.03 964.61,709.38 968.47,704.88 973.01,709.38 976.64,699.28 
		982.54,709.98 988.22,705.12 993.44,709.98 998.44,698.43 1004.34,710.72 1015.38,708.23 1024.77,710.72 1030,708.53 
		1037.71,713.19 1047.7,715.71 1054.04,719.45 939.81,719.06 	"/>
	<path class="st3" d="M380.62,719.09c0.39-0.39,5.96-27.76,6.74-27.25c0.78,0.52,4.67,9.26,4.67,9.26l0,0l10.89-17.88l3.89,6.43
		l3.5-0.26c0,0,2.72,7.85,2.72,8.1c0,0.26,1.95-3.6,1.95-3.6l3.5,3.99l2.72-4.5l2.72,2.96l8.56-17.88l5.44,14.66l13.39-28.11
		l15.78,14.99l3.89-6.3l2.72,9.26l3.89-6.04l5.83,10.29l5.83-14.92l2.72,17.87l4.67-5.79l5.06,4.5l6.22-17.23l7.39,16.33l5.83-8.62
		l6.61,9.77l2.72-4.5l2.72,5.66l3.11-5.4l2.33,4.63l3.5-7.33l3.5,7.59c0,0,4.28-2.96,4.66-2.57c0.39,0.39,8.56,11.83,8.56,11.83
		l3.5-4.25c0,0,5.06,6.94,5.06,7.21c0,0.26,5.83-7.46,4.67-7.21l4.28,3.6l3.11-8.23l4.28,5.79l3.89-4.37l2.33,4.37l3.89-12.6
		l6.61,13.76c0,0,3.5-5.15,4.28-4.76c0.78,0.39,4.67,9.13,4.67,9.13l3.5-3.73l1.94,5.92l3.11-3.6l3.89,8.62l3.89-1.93l3.5,1.54
		l3.11-10.93l5.44,5.15l4.67-18.77l4.67,10.03l4.28-6.04l5.44,10.8l3.11-2.44l4.67,4.76l3.35,18.22L380.62,719.09z"/>
	<path class="st3" d="M1029.33,702.54l13.91,6.49l7.04-5.36l3.86,5.36l3.86-4.5l4.54,4.5l3.64-10.11l5.9,10.7l5.68-4.86l5.22,4.86
		l4.99-11.55l5.91,12.3l11.04-2.49l9.39,2.49l5.22-2.19l11.84-4.72c0,0,9.47-1.45,13.64,1.97c4.17,3.42,7.41,12.69,7.41,12.69
		l-121.96,1.32L1029.33,702.54z"/>
	<path class="st3" d="M653.53,718.93c0.39-0.39,8.17-23.79,8.95-23.28c0.78,0.51,4.67,9.26,4.67,9.26l0,0l10.89-17.88l3.89,6.43
		l3.5-0.26c0,0,2.72,7.84,2.72,8.1c0,0.26,1.95-3.6,1.95-3.6l3.5,3.99l2.72-4.5l2.72,2.96l8.56-17.88l15.23,16.89l12.29-30.73
		l7.1,15.39l3.89-6.31l2.72,9.26l3.89-6.05l5.83,10.29l5.83-14.92l2.72,17.87l4.66-5.79l5.06,4.5l6.22-17.23l7.39,16.33l5.83-8.62
		l6.61,9.78l2.72-4.5l2.72,5.66l3.11-5.4l2.33,4.63l3.5-7.33l3.5,7.59c0,0,4.28-2.96,4.66-2.57c0.39,0.38,8.56,11.83,8.56,11.83
		l3.5-4.24c0,0,5.06,6.94,5.06,7.2c0,0.26,5.83-7.46,4.66-7.2l4.28,3.6l3.11-8.23l4.28,5.79l3.89-4.37l2.33,4.37l3.89-12.6
		l6.61,13.76c0,0,3.5-5.15,4.28-4.76c0.78,0.39,4.66,9.13,4.66,9.13l3.51-3.73l1.94,5.92l3.11-3.6l3.89,8.62l3.88-1.93l3.5,1.55
		l3.11-10.93l5.44,5.15l4.67-18.78l4.67,10.03l4.28-6.04l5.44,10.8l3.11-2.44l4.67,4.76l4.72,14.44L653.53,718.93z"/>
</g>
<polygon class="st3" points="1702.77,700.47 1716.68,706.96 1723.72,701.6 1727.58,706.96 1731.44,702.46 1735.98,706.96 
	1739.61,696.86 1745.51,707.56 1751.19,702.7 1756.41,707.56 1761.4,696 1767.3,708.3 1778.34,705.81 1787.74,708.3 1792.96,706.11 
	1800.68,710.76 1810.67,713.29 1817,717.02 1702.77,716.64 "/>
<path class="st4" d="M388.45,717.09l588.4,2.36l9.61-0.03l552.46-1.69l4.76,16.95c0,0-303.48-7.31-342.64-8.47
	c-39.16-1.16-556.44-1.51-559.78,0c-3.33,1.5-242.16,8.47-242.16,8.47L388.45,717.09z"/>
<polygon class="st4" points="421.38,792.68 454.4,819.96 1013.04,874.4 1495.88,816.15 1521.93,788.01 1021.5,855.93 "/>
<path class="st3" d="M1152.41,718.13c0.39-0.39,3.25-28.39,4.03-27.87c0.78,0.52,4.67,9.26,4.67,9.26l0,0l10.89-17.88l3.89,6.43
	l3.5-0.26c0,0,2.72,7.85,2.72,8.1c0,0.26,1.95-3.6,1.95-3.6l3.5,3.99l2.72-4.5l2.72,2.96l8.56-17.88l5.61,19.96l8.72-9.95l5.45,6.87
	l9.33-23.74l4.44,12.08l4.95-9.98l2.72,9.26l3.89-6.04l5.83,10.29l5.84-14.92l2.72,17.87l4.67-5.79l5.06,4.5l6.22-17.23l7.39,16.33
	l5.83-8.62l6.61,9.77l2.72-4.5l2.72,5.66l3.11-5.4l2.33,4.63l3.5-7.33l3.5,7.59c0,0,4.28-2.96,4.66-2.57
	c0.39,0.39,8.56,11.83,8.56,11.83l3.5-4.25c0,0,5.06,6.94,5.06,7.2c0,0.26,5.83-7.46,4.67-7.2l4.28,3.6l3.11-8.23l4.28,5.79
	l3.89-4.37l2.34,4.37l3.89-12.6l6.61,13.76c0,0,3.5-5.15,4.28-4.76c0.78,0.39,4.67,9.13,4.67,9.13l3.5-3.73l1.94,5.92l3.11-3.6
	l3.89,8.62l3.89-1.93l3.5,1.54l3.11-10.93l5.44,5.15l4.67-18.77l4.67,10.03l4.28-6.04l5.44,10.8l3.11-2.44l4.67,4.76l3.35,18.22
	L1152.41,718.13z"/>
<polygon class="st3" points="1792.3,700.12 1806.21,706.61 1813.25,701.25 1817.11,706.61 1820.97,702.11 1825.51,706.61 
	1829.14,696.51 1835.04,707.21 1840.72,702.35 1845.94,707.21 1850.93,695.65 1856.84,707.95 1867.87,705.46 1877.27,707.95 
	1882.49,705.76 1894.33,701.04 1900.88,698.36 1915.38,718.7 1793.41,717.02 "/>
<polygon class="st5" points="2,674.63 227.71,792.47 961.91,863.24 1594.14,807.48 1921.82,699.27 1921.82,1079 2,1079 "/>
<path class="st6" d="M409.53,810.93l156.86,16.46l13.36,28.53l-57.37,3.54l6.39,35.32c-13.93,18.01-119.24-7.44-119.24-7.44
	s14.55,22.21,21.76,26.3c7.21,4.09-54.77,21.61-54.77,21.61l54.77,21.51l-47.6,41.43c0,0-19.21,20.15,37.69,28.8
	c90.8,13.79-105.29,52.01-105.29,52.01L2,1076.84V962.36L409.53,810.93z"/>
<polygon class="st7" points="1245.9,498.77 1233.45,516.04 1252.12,533.3 1233.45,533.3 1233.45,552.57 1221.68,559.2 
	1281.45,608.37 1346.02,663.61 1588.66,713.44 1562.31,676.59 "/>
<path class="st3" d="M1434.87,718.2c0.39-0.5,5.96-35.74,6.74-35.08c0.78,0.66,4.67,11.92,4.67,11.92l0,0l10.89-23.02l3.89,8.28
	l3.5-0.34c0,0,2.72,10.1,2.72,10.43c0,0.33,1.95-4.63,1.95-4.63l3.5,5.13l2.72-5.79l2.72,3.81l8.56-23.01l5.61,25.7l8.72-12.81
	l5.45,8.84l9.33-30.56l4.44,15.55l4.95-12.85l2.72,11.92l3.89-7.78l5.83,13.24l5.84-19.2l2.72,23.01l4.67-7.45l5.06,5.8l6.22-22.19
	l7.39,21.02l5.83-11.09l6.61,12.58l2.72-5.79l2.72,7.29l3.11-6.95l2.33,5.96l3.5-9.44l3.5,9.77c0,0,4.28-3.8,4.66-3.31
	c0.39,0.5,8.56,15.23,8.56,15.23l3.5-5.47c0,0,5.06,8.94,5.06,9.28c0,0.33,5.83-9.6,4.67-9.28l4.28,4.64l3.11-10.6l4.28,7.45
	l3.89-5.63l2.34,5.63l3.89-16.23l6.61,17.72c0,0,3.5-6.62,4.28-6.12c0.78,0.49,4.67,11.75,4.67,11.75l3.5-4.8l1.94,7.62l3.11-4.64
	l3.89,11.1l3.89-2.48l3.5,1.98l3.11-14.07l5.44,6.62l4.67-24.17l4.67,12.91l4.28-7.78l5.44,13.9l3.11-3.14l4.67,6.12l3.35,23.45
	L1434.87,718.2z"/>
<path class="st3" d="M1565.32,962.18c6.82,0.07,9.42-0.95-2.96-1.92c-26.43-2.08-32.45-4.16-38.38-4.6c0,0,74.12-1.86,77.82-1.78
	c9.5,0.21,3.32-4.33-8.15-4.62c-11.48-0.29-80.67-3.61-80.67-3.61s56.89-0.98,57.33-3.41c0.44-2.44-72.2-7.93-72.2-7.93l79.72-3.3
	c0,0-100.37-4.78-119.91-4.5c-19.54,0.28-73.8,2.41-73.8,2.41l-117.43,4.8l63.74,4.12l-35.86,3.06c0,0-82.15,4.32-86.28,5.25
	c-23.71,5.35,42.71,10.51,24.63,9.69c0,0,67.45,2.18,33.9,2.98c-67.89,1.61-101.14-0.55-94.24,3.43c7.33,4.23,94.66,2.77,94.66,2.77
	s-80.43,4.31-66.16,7.68c10.83,2.56,91.89-0.91,91.89-0.91s-30.34,3.51-29.71,5.96c0.62,2.45,149.31,3.39,149.31,3.39
	s109.71-1.87,117.74-4.18c8.03-2.3-5.42-5.17-5.42-5.17s60.41-2.13,69.33-2.47c8.92-0.34,10.32-2.32-3.61-2.55
	c-13.93-0.23-92.28-4.51-92.28-4.51C1557.69,962.19,1534.35,961.87,1565.32,962.18z"/>
<g>
	<path class="st5" d="M362.13,605.29l36.98,15.39c0,0-5.92,6.4-12.71,3.78C366.13,616.62,362.13,605.29,362.13,605.29z"/>
	<path class="st5" d="M350.25,524.3l38.2,18.39c0,0-7.85,2.56-14.63-0.06C353.54,534.79,350.25,524.3,350.25,524.3z"/>
	<polygon class="st8" points="249.76,231.13 302.96,359.59 274.52,329.37 278.97,378.25 245.63,301.14 	"/>
	<path class="st9" d="M248.75,227.16c0,0-12.81,66.36-46.22,103.1c-17.78,19.56,26.66-16.88,26.66-16.88l-30.86,44.44l25.21-6.22
		c0,0-1.23,3.43-3.46,8c-3.32,6.82-8.85,16.18-15.77,20.44c-11.55,7.11,27.55-22.22,27.55-22.22s14.22,24,5.33,36.44
		c-8.89,12.45,15.03-6.21,11.55-42.66c-1.78-18.66,10.67,23.11,17.78,32.89c0,0,0.89-13.33,0-17.77
		c-0.89-4.45,12.44,17.77,12.44,17.77s-15.11-42.66-24.73-71.85c-2.08-6.31-7.32-28.65,8.73-12.59
		C269.19,306.26,248.75,227.16,248.75,227.16z"/>
	<polygon class="st9" points="274.52,329.37 302.96,359.59 274.52,340.92 	"/>
	<polygon class="st5" points="276.51,351.21 294.96,387.14 278.97,375.14 	"/>
	<path class="st8" d="M326.28,691.57c0,0,117.62,84.91,155.82,104.91c28.8,15.08-40.88,0-40.88,0l51.28,40.1l-47.2-16.04
		l35.43,27.06c0,0-81.62,34.66-108.2-8.39c-6.87-11.12,8.09,33.05,8.09,33.05l-49.32-35.68l6.36,25.05l-31.34-21.05l11.12,52.34
		c0,0-6.47,5.98-22.47,0.89c-18.5-5.88-21.07-22.26-20.44-23.65c1.36-3.01-1.37-89.45-11.36-124.17
		C253.17,711.28,271.29,663.84,326.28,691.57z"/>
	<path class="st9" d="M273.06,874.4l34.48-99.68l26.43,2.22l-8.75-17.66l44.13,55.43l-22.22-83.1c0,0,23.04,13.7,38.37,17.7
		c15.34,3.99,28.23-4.88,28.23-4.88l-41.12-15.56l-30.82-27.25l-12.67,6.98l-8.18,21.27l3.67,12.33l-14.84-11.67l-115.43,47.74
		L273.06,874.4z"/>
	<path class="st8" d="M325.08,605.29c0,0,55.54,73.82,89.54,94.02c19.72,11.72-26.54,0-26.54,0l33.29,35.38l-30.64-14.15l23,23.88
		c0,0-56.61-5.3-71.65-28.3c-15.04-23,0.88,53.95,0.88,53.95l-26.24-35.38l4.13,22.11l-20.35-18.57l-31.55,85.41
		c0,0-0.24-17.52-9.33-33.12c-7.83-13.43-20.98-48.7-20.98-48.7c0.88-2.65,40.34-56.42,33.85-87.07
		C266.01,624.13,289.39,580.82,325.08,605.29z"/>
	<path class="st9" d="M269.81,752.94l25.81-100.47l28.76,30.77l-9.9-31.61l30.44,42.22l-12.83-70.21c0,0,18.88,14.45,34.22,18.44
		c15.34,3.99,36.8,0.7,36.8,0.7l-49.69-21.14l-28.33-16.33l-2,30l-21.33-12.67l3.67,12.33l-14.84-11.67l-44.95,28.66L269.81,752.94z
		"/>
	<path class="st9" d="M233.4,338.93l-15.99,14.17c0,0-44,52.48-69.99,65.82c-26,13.33,25.33-3.33,25.33-3.33
		s-10.03,24.66-32.68,29.33c-22.65,4.66,43.34,12,54.68,0c11.33-12,0.61,24.9-67.99,59.33c-23.08,11.58,44-3.33,59.99-12.67
		c0,0,0.49,11.83-43.33,30c-27.33,11.33,48-3.33,48-3.33s-14.67,12.67-16,13.33c-1.33,0.67,22-6,16.67,6
		c-5.33,12,41.11,3.33,53.55,21.33c12.44,18,21.11,14,21.11,14l-16.67-177.98C250.08,394.92,239.52,340.93,233.4,338.93"/>
	<path class="st8" d="M302.84,505.07c0,0,35.28,68.2,101.15,92.58c21.52,7.96-26.54,0-26.54,0l21.66,23.02
		c-3.32,7.94-37.98-15.38-37.98-15.38l41.97,37.47c0,0-56.61-5.3-71.65-28.3c-15.04-23,0.88,53.95,0.88,53.95l-26.24-35.38
		l4.13,22.11l-20.35-18.57l-20.07,85.04c0,0-41.7-44.09-44-42.5c-17.37,12.07,42.54-95.37,36.06-126.02
		C255.38,522.46,267.14,480.6,302.84,505.07z"/>
	<path class="st9" d="M254.86,652.06l33.79-92.77l25.15,35l-5.15-29.66l25.32,33.47l-11.65-60.13c0,0,18.88,14.45,34.22,18.44
		c15.34,3.99,27.16-3.64,27.16-3.64l-40.04-16.8l-28.33-16.33l-2,30l-21.33-12.67l3.67,12.33l-14.84-11.67l-25.95,35.65V652.06z"/>
	<path class="st9" d="M223.97,506.61l-9.8,0.3c0,0-75.56,43.47-118.03,51.61c-42.46,8.14,40.18,1.65,40.18,1.65
		s-18.8,22.51-54.93,22.71c-36.13,0.2,66.57,20.39,85.84,10.7c19.27-9.69-2.12,24.83-114.08,45.57c-37.67,6.98,69.48,5.3,95.75-0.83
		c0,0-0.69,11.83-71.73,21.29c-44.31,5.9,75.76,6.09,75.76,6.09s-24.59,9.7-26.77,10.1c-2.17,0.4,35.28-1.65,25.42,9.22
		c-9.86,10.86,64.12,11.35,81.43,31.65l0.37-40.59l36.42-115.77C269.81,560.29,233.34,509.79,223.97,506.61"/>
	<path class="st8" d="M295.11,431.99c0,0,46.02,58.97,87.49,80.08c23.46,11.94-22.95,0-22.95,0l28.8,30.61l-26.5-12.24l21.74,22.32
		c0,0-50.82-6.25-63.82-26.15c-13.01-19.89,0.77,46.67,0.77,46.67l-22.7-30.6l3.57,19.13l-17.6-16.07c0,0-13.03,44.33-17.95,36.06
		c-8.75-14.69-20.8-35.36-20.31-36.82c0.77-2.29,10.44-44.17,4.83-70.68C244.86,447.8,264.24,410.83,295.11,431.99z"/>
	<path class="st9" d="M245.63,773.83l16.47-80.15c0,0-47.59-46.06-59.46-49.55l-0.8,6.44l0.8-6.44c0,0-93.55,41.23-146.64,48.05
		c-53.09,6.82,50.53,2.94,50.53,2.94s-22.9,22-68.29,21.04c-45.39-0.96,84.28,22.59,108.19,13.49c23.1-8.81-0.2,22.62-128.15,40.31
		v6.66c31.93,1.18,87.1,0.51,106.55-2.64c0,0-0.48,11.86-89.44,19.08c-55.48,4.51,95.38,8.53,95.38,8.53s-35.9,8.39-33.31,9.29
		c60.04,20.73-22.28,28.95-34.31,39.55C51.12,861,205.19,840,227.59,860.93c22.4,20.93,45.47,13.47,45.47,13.47L245.63,773.83z"/>
	<path class="st9" d="M264.84,453.8l1.1-7.75v54c0,0,5.72-38.97,13.03-30.18c5.42,6.51,15.84,4.52,15.84,4.52l-6.06-14.04
		c0,0-4.53-14.9,0,0c4.53,14.9,28.69,23.74,28.69,23.74s-24.25-50.73-15.27-40.03c8.98,10.7,48.09,3.99,48.09,3.99l-33.77-10.02
		l-20.87-17.38l-17.45,18.07l3.11,16.67l-15.33-9.34"/>
	<path class="st8" d="M276.51,344.48c0,0,57.56,56.44,76.23,69.77c18.66,13.33-20,0-20,0l25.09,26.66l-23.09-10.67l17.33,18
		c0,0-42.66-4-53.99-21.33c-11.33-17.33,0.67,40.66,0.67,40.66l-19.77-26.66l3.11,16.66l-15.33-14l-7.97,44.18
		c0,0-26.02-42.85-25.36-44.85c0.67-2,17.11-39.15,12.22-62.24C240.75,357.59,249.61,326.04,276.51,344.48z"/>
	<polygon class="st9" points="256.03,338.93 276.51,398.1 276.51,372.56 260.92,334.76 	"/>
	<polygon class="st9" points="245.63,468.08 247.59,453.86 268.59,472.08 265.94,500.04 256.03,476.95 	"/>
</g>
<g>
	<path class="st10" d="M178.74,632.8l54.42,22.64c0,0-8.71,9.42-18.7,5.56C184.63,649.48,178.74,632.8,178.74,632.8z"/>
	<path class="st10" d="M161.26,513.62l56.22,27.06c0,0-11.55,3.77-21.54-0.08C166.1,529.06,161.26,513.62,161.26,513.62z"/>
	<polygon class="st11" points="13.39,82.21 91.68,271.24 49.83,226.78 56.36,298.71 7.31,185.23 	"/>
	<path class="st10" d="M56.36,307.87c0,0-22.23-62.78-36.39-105.73c-3.06-9.28-10.78-42.17,12.85-18.52
		C41.98,192.77,11.9,76.36,11.9,76.36S8.84,92.16,2,114.53v200.39c6.08-11.69,12.25-30.79,9.9-55.45
		c-2.62-27.47,15.7,34.01,26.16,48.4c0,0,1.31-19.62,0-26.16C36.75,275.16,56.36,307.87,56.36,307.87z"/>
	<polygon class="st10" points="49.83,226.78 91.68,271.24 49.83,243.77 	"/>
	<polygon class="st5" points="52.75,258.91 79.91,311.79 56.36,294.13 	"/>
	<path class="st11" d="M125.98,759.77c0,0,173.08,124.95,229.29,154.38c42.38,22.19-60.15,0-60.15,0l75.47,59l-69.45-23.6
		l52.14,39.82c0,0-120.11,51.01-159.22-12.34c-10.1-16.36,11.9,48.64,11.9,48.64l-72.58-52.51l9.35,36.87l-46.12-30.97l16.36,77.02
		c0,0-9.52,8.8-33.06,1.31c-27.23-8.66-31.01-32.76-30.08-34.8c2-4.42-2.02-131.63-16.72-182.72
		C18.41,788.77,45.07,718.97,125.98,759.77z"/>
	<path class="st10" d="M194.17,814.65l-45.35-40.1l-18.64,10.27l-12.04,31.31l5.4,18.15l-21.83-17.17L2,858.35v114.68l45.67,55.79
		l50.74-146.68l38.89,3.27l-5.82-21.21l57.88,76.79l-32.69-122.29c0,0,33.9,20.17,56.47,26.05c22.57,5.88,54.16,1.02,54.16,1.02
		L194.17,814.65z"/>
	<path class="st11" d="M265.93,823.24l-48.99-52.07c0,0,68.08,17.25,39.05,0c-50.03-29.73-131.76-138.36-131.76-138.36
		c-52.53-36.01-86.92,27.71-77.38,72.8C54.78,743.06,16.08,803.97,2,825.77v20.91c6.51,16.7,18.04,45.2,25.91,58.7
		c13.37,22.96,13.73,48.74,13.73,48.74l46.43-125.69l29.94,27.33l-6.07-32.54l38.61,52.06c0,0-23.43-113.24-1.3-79.39
		c22.13,33.84,105.43,41.65,105.43,41.65l-33.84-35.14L265.93,823.24z"/>
	<path class="st10" d="M42.88,850.08l37.98-147.85l42.31,45.27l-14.57-46.52l44.8,62.13l-18.88-103.32c0,0,27.79,21.26,50.35,27.14
		c22.57,5.88,54.16,1.02,54.16,1.02l-73.12-31.11l-41.69-24.03l-2.94,44.14l-31.39-18.64l5.4,18.15l-21.83-17.17L7.31,701.47
		L42.88,850.08z"/>
	<path class="st10" d="M13.86,323.23c0,0-5.5-28.14-11.86-51.54v287.23c2.04,1.65,3.85,3.5,5.31,5.62
		c18.31,26.48,31.06,20.6,31.06,20.6L13.86,323.23z"/>
	<path class="st11" d="M240.34,621.56C143.41,585.69,91.49,485.33,91.49,485.33C38.97,449.32,21.66,510.92,31.2,556
		c4.47,21.14-12.52,67.1-29.2,108.14v97.91c18.48,18.23,40.88,41.92,40.88,41.92l29.54-125.14l29.94,27.33l-6.07-32.54l38.61,52.06
		c0,0-23.43-113.24-1.3-79.39c22.13,33.84,105.43,41.65,105.43,41.65l-61.76-55.14c0,0,51.01,34.33,55.89,22.64l-31.88-33.88
		C201.29,621.56,272,633.28,240.34,621.56z"/>
	<path class="st10" d="M20.89,701.63l49.72-136.51l37.01,51.5l-7.58-43.65l37.26,49.25l-17.15-88.49c0,0,27.79,21.26,50.36,27.14
		c22.57,5.88,39.96-5.36,39.96-5.36l-58.93-24.72l-41.69-24.03l-2.94,44.14l-31.39-18.64l5.4,18.15l-21.83-17.17l-38.19,52.45
		V701.63z"/>
	<path class="st10" d="M2,513.65v182.89l40.88-129.95C42.88,566.59,21.31,536.71,2,513.65z"/>
	<path class="st11" d="M80.13,377.8c0,0,67.72,86.78,128.75,117.84c34.53,17.57-33.78,0-33.78,0l42.38,45.04l-39-18.02l32,32.85
		c0,0-74.78-9.2-93.92-38.48c-19.14-29.27,1.13,68.68,1.13,68.68l-33.4-45.03l5.25,28.14l-25.9-23.64c0,0-19.17,65.24-26.41,53.06
		c-12.87-21.62-30.6-52.03-29.88-54.19c1.13-3.37,15.36-65,7.1-104C6.18,401.06,34.69,346.64,80.13,377.8z"/>
	<path class="st10" d="M47.67,1028.81L7.31,880.82l24.23-117.95c0,0-13.19-12.76-29.55-27.63v288.44
		C26.86,1035.54,47.67,1028.81,47.67,1028.81z"/>
	<path class="st10" d="M35.57,409.88l1.62-11.41v79.46c0,0,8.41-57.34,19.17-44.42c7.98,9.58,23.31,6.65,23.31,6.65l-8.92-20.66
		c0,0-6.67-21.93,0,0c6.67,21.93,42.21,34.93,42.21,34.93s-35.69-74.66-22.48-58.91c13.21,15.75,70.77,5.87,70.77,5.87l-49.69-14.75
		l-30.71-25.57l-25.68,26.6l4.58,24.52l-22.56-13.74"/>
	<path class="st11" d="M172.41,390.92l-36.92-39.24c0,0,56.89,19.62,29.43,0C137.45,332.06,52.75,249.01,52.75,249.01
		C13.17,221.87,0.12,268.3,7.31,302.27c3.46,16.32-0.34,37.41-5.31,55.25v60.76c10.82,18.81,24.65,41.57,24.65,41.57l11.73-65.01
		l22.56,20.6l-4.58-24.52l29.1,39.23c0,0-17.66-85.34-0.98-59.83c16.68,25.5,79.46,31.39,79.46,31.39l-25.5-26.48L172.41,390.92z"/>
	<polygon class="st10" points="22.61,240.85 52.75,327.91 52.75,290.34 29.8,234.71 	"/>
	<polygon class="st10" points="7.31,430.89 10.19,409.97 41.1,436.78 37.19,477.93 22.61,443.95 	"/>
</g>
<g>
	<path class="st5" d="M1568.08,617.05l-38.6,17.69c0,0,4.7,5.29,11.49,2.67C1561.25,629.57,1568.08,617.05,1568.08,617.05z"/>
	<path class="st5" d="M1577.13,537.25l-38.2,18.39c0,0,7.84,2.56,14.63-0.06C1573.84,547.74,1577.13,537.25,1577.13,537.25z"/>
	<polygon class="st12" points="1677.61,244.08 1624.41,372.54 1652.85,342.32 1648.41,391.2 1681.74,314.09 	"/>
	<path class="st5" d="M1678.63,240.11c0,0,12.82,66.36,46.22,103.1c17.77,19.56-26.66-16.88-26.66-16.88l30.86,44.44l-25.21-6.22
		c0,0,1.23,3.43,3.46,8c3.32,6.82,8.85,16.18,15.77,20.44c11.55,7.11-27.55-22.22-27.55-22.22s-14.22,24-5.33,36.44
		c8.89,12.45-15.03-6.21-11.56-42.66c1.78-18.66-10.67,23.11-17.77,32.89c0,0-0.89-13.33,0-17.77c0.89-4.45-12.44,17.77-12.44,17.77
		s15.11-42.66,24.73-71.85c2.08-6.31,7.32-28.65-8.73-12.59C1658.19,319.21,1678.63,240.11,1678.63,240.11z"/>
	<polygon class="st5" points="1652.85,342.32 1624.41,372.54 1652.85,353.87 	"/>
	<polygon class="st5" points="1650.87,364.16 1632.41,400.09 1648.41,388.09 	"/>
	<path class="st12" d="M1601.1,704.52c0,0-117.62,84.91-155.82,104.91c-28.79,15.08,40.88,0,40.88,0l-51.29,40.1l47.2-16.04
		l-35.43,27.06c0,0,81.62,34.66,108.2-8.39c6.87-11.12-8.09,33.05-8.09,33.05l49.32-35.68l-6.36,25.05l31.35-21.05l-11.12,52.34
		c0,0,4.34,11.56,20.34,6.47c18.5-5.88,23.2-27.84,22.57-29.23c-1.36-3,1.37-89.45,11.36-124.17
		C1674.2,724.23,1656.09,676.8,1601.1,704.52z"/>
	<path class="st5" d="M1654.32,887.35l-34.48-99.68l-26.43,2.22l8.75-17.66l-44.13,55.43l22.22-83.1c0,0-23.04,13.7-38.37,17.7
		c-15.34,3.99-36.8,0.7-36.8,0.7l49.69-21.14l30.82-27.25l12.67,6.98l8.18,21.27l-3.67,12.33l14.84-11.67l115.43,47.74
		L1654.32,887.35z"/>
	<path class="st12" d="M1602.3,618.24c0,0-55.54,73.82-89.54,94.02c-19.72,11.72,26.54,0,26.54,0L1506,747.65l30.64-14.15l-23,23.88
		c0,0,56.61-5.3,71.65-28.3c15.04-23-0.88,53.95-0.88,53.95l26.24-35.38l-4.12,22.11l20.35-18.57l31.55,85.41
		c0,0,0.24-17.52,9.33-33.12c7.83-13.43,20.98-48.7,20.98-48.7c-0.88-2.65-40.33-56.42-33.85-87.07
		C1661.36,637.08,1637.99,593.78,1602.3,618.24z"/>
	<path class="st5" d="M1657.57,765.89l-25.81-100.47l-28.75,30.77l9.9-31.61l-30.45,42.22l12.83-70.21c0,0-18.88,14.45-34.22,18.44
		c-15.34,3.99-35.67,1.7-35.67,1.7l48.56-22.14l28.33-16.33l2,30l21.33-12.67l-3.67,12.33l14.84-11.67l44.94,28.66L1657.57,765.89z"
		/>
	<path class="st5" d="M1693.97,351.88l15.99,14.17c0,0,44,52.48,69.99,65.82c26,13.33-25.33-3.33-25.33-3.33
		s10.03,24.66,32.68,29.33c22.65,4.66-43.34,12-54.68,0c-11.33-12-0.61,24.9,67.99,59.33c23.08,11.58-44-3.33-59.99-12.67
		c0,0-0.49,11.83,43.33,30c27.33,11.33-48-3.33-48-3.33s14.67,12.67,16,13.33c1.33,0.67-22-6-16.67,6
		c5.33,12-41.11,3.33-53.55,21.33c-12.44,18-21.11,14-21.11,14l16.67-177.98C1677.3,407.87,1687.85,353.88,1693.97,351.88"/>
	<path class="st12" d="M1624.54,519.14c0,0-35.28,68.2-101.15,92.58c-21.52,7.96,26.54,0,26.54,0l-21.66,23.02
		c3.32,7.94,37.99-15.38,37.99-15.38l-41.98,37.47c0,0,56.61-5.3,71.65-28.3c15.04-23-0.88,53.95-0.88,53.95l26.24-35.38
		l-4.12,22.11l20.34-18.57l20.07,85.04c0,0,41.7-44.09,44-42.5c17.37,12.07-42.54-95.37-36.06-126.02
		C1672,536.53,1660.23,494.67,1624.54,519.14z"/>
	<path class="st5" d="M1672.51,665.02l-33.79-92.77l-25.15,35l5.15-29.66l-25.32,33.47l11.66-60.13c0,0-18.88,14.45-34.22,18.44
		c-15.34,3.99-27.15-3.64-27.15-3.64l40.04-16.8l31.78-16.33l-1.45,30l21.33-12.67l-3.67,12.33l14.84-11.67l25.95,35.65V665.02z"/>
	<path class="st5" d="M1714.01,526.3l-0.8-6.44c0,0,75.56,43.47,118.03,51.61c42.46,8.14-40.18,1.65-40.18,1.65
		s18.8,22.51,54.93,22.71c36.13,0.2-66.56,20.39-85.84,10.7c-19.27-9.69,2.11,24.83,114.08,45.57c37.66,6.98-69.48,5.3-95.75-0.83
		c0,0,0.69,11.83,71.74,21.29c44.31,5.9-75.76,6.09-75.76,6.09s24.59,9.7,26.77,10.1c2.17,0.4-35.28-1.65-25.42,9.22
		c9.86,10.86-64.12,11.35-81.43,31.65l-0.37-40.59l-36.42-115.77c0,0,36.47-50.51,45.83-53.69"/>
	<path class="st12" d="M1632.26,444.95c0,0-46.02,58.97-87.49,80.08c-23.47,11.94,22.95,0,22.95,0l-28.8,30.61l26.5-12.24
		l-21.74,22.32c0,0,50.82-6.25,63.82-26.15c13.01-19.89-0.77,46.67-0.77,46.67l22.7-30.6l-3.57,19.13l17.6-16.07
		c0,0,13.03,44.33,17.95,36.06c8.74-14.69,20.8-35.36,20.31-36.82c-0.77-2.29-10.44-44.17-4.82-70.68
		C1682.51,460.76,1663.14,423.78,1632.26,444.95z"/>
	<path class="st5" d="M1681.74,786.78l-16.47-80.15c0,0,47.59-46.06,59.46-49.55l0.8,6.44l-0.8-6.44c0,0,93.55,41.23,146.64,48.05
		c53.09,6.82-50.53,2.94-50.53,2.94s22.9,22,68.29,21.04c45.39-0.96-84.28,22.59-108.19,13.49c-23.1-8.81,0.2,22.62,128.14,40.31
		v6.66c-31.93,1.18-87.1,0.51-106.54-2.64c0,0,0.48,11.86,89.44,19.08c55.48,4.51-95.38,8.53-95.38,8.53s35.9,8.39,33.3,9.29
		c-60.04,20.73,22.28,28.95,34.31,39.55c12.04,10.59-142.03-10.41-164.43,10.52c-22.4,20.93-45.47,13.47-45.47,13.47L1681.74,786.78
		z"/>
	<path class="st5" d="M1662.54,466.75l-1.1-7.75v54c0,0-5.72-38.97-13.03-30.18c-5.42,6.51-15.84,4.52-15.84,4.52l6.06-14.04
		c0,0,4.54-14.9,0,0c-4.53,14.9-28.69,23.74-28.69,23.74s24.25-50.73,15.27-40.03c-8.98,10.7-48.09,3.99-48.09,3.99l33.77-10.02
		l20.87-17.38l17.46,18.07l-3.11,16.67l15.33-9.33"/>
	<path class="st12" d="M1650.87,357.43c0,0-57.56,56.44-76.23,69.77c-18.66,13.33,20,0,20,0l-25.09,26.66l23.09-10.67l-17.33,18
		c0,0,42.66-4,53.99-21.33c11.33-17.33-0.67,40.66-0.67,40.66l19.77-26.66l-3.11,16.66l15.33-14l7.97,44.18
		c0,0,26.02-42.85,25.36-44.85c-0.67-2-17.11-39.15-12.22-62.24C1686.63,370.54,1677.77,338.99,1650.87,357.43z"/>
	<polygon class="st5" points="1671.35,351.88 1650.87,411.05 1650.87,385.52 1666.46,347.71 	"/>
	<polygon class="st5" points="1681.74,481.03 1679.79,466.81 1658.79,485.03 1661.44,513 1671.35,489.91 	"/>
</g>
<g>
	<path class="st5" d="M1742.97,694.16l-42.36,17.62c0,0,6.78,7.34,14.56,4.33C1738.39,707.14,1742.97,694.16,1742.97,694.16z"/>
	<path class="st5" d="M1756.58,601.39l-43.76,21.06c0,0,8.99,2.94,16.76-0.07C1752.81,613.41,1756.58,601.39,1756.58,601.39z"/>
	<polygon class="st12" points="1871.67,265.59 1810.74,412.72 1843.31,378.11 1838.23,434.1 1876.41,345.78 	"/>
	<path class="st5" d="M1921.82,434.76c-2.35-1.77-4.55-3.98-6.55-6.47c2.47,1.92,4.72,3.7,6.55,5.18V434.76z"/>
	<path class="st5" d="M1838.23,441.23c0,0,17.3-48.87,28.33-82.3c2.38-7.22,8.39-32.82-10-14.42c-7.12,7.12,16.29-83.48,16.29-83.48
		s13.67,70.72,48.98,113.5v6.03c-10.47-7.57-26.58-20.78-26.58-20.78l26.58,38.28v10.46l-20.1-4.96c0,0,1.41,3.93,3.96,9.17
		c2.32,4.77,5.6,10.62,9.59,15.56c-9.94-7.74-23.09-17.6-23.09-17.6s-16.29,27.49-6.11,41.74c10.18,14.26-17.21-7.12-13.23-48.87
		c2.04-21.38-12.22,26.47-20.36,37.67c0,0-1.02-15.27,0-20.36C1853.5,415.78,1838.23,441.23,1838.23,441.23z"/>
	<polygon class="st5" points="1843.31,378.11 1810.74,412.72 1843.31,391.35 	"/>
	<polygon class="st5" points="1841.04,403.13 1819.9,444.29 1838.23,430.54 	"/>
	<path class="st12" d="M1784.03,792.98c0,0-134.72,97.26-178.48,120.17c-32.98,17.27,46.82,0,46.82,0l-58.74,45.93l54.06-18.37
		l-40.58,30.99c0,0,93.49,39.7,123.93-9.61c7.86-12.74-9.26,37.86-9.26,37.86l56.49-40.87l-7.28,28.7l35.9-24.11l-12.73,59.95
		c0,0,7.41,6.85,25.73,1.02c21.2-6.74,24.14-25.5,23.41-27.09c-1.56-3.44,1.57-102.45,13.01-142.23
		C1867.77,815.56,1847.02,761.23,1784.03,792.98z"/>
	<path class="st5" d="M1730.96,835.7l35.3-31.22l14.51,7.99l9.37,24.37l-4.2,14.12l17-13.36l118.89,49.17v21.78l-76.83,93.83
		l-39.49-114.18l-30.27,2.54l10.03-20.22l-50.55,63.49l25.45-95.19c0,0-26.39,15.7-43.95,20.27c-17.57,4.58-42.15,0.79-42.15,0.79
		L1730.96,835.7z"/>
	<path class="st12" d="M1785.4,694.16c0,0-63.61,84.56-102.56,107.7c-22.59,13.42,30.4,0,30.4,0l-38.13,40.53l35.1-16.21
		l-26.35,27.35c0,0,64.85-6.07,82.07-32.42c17.23-26.34-1.01,61.8-1.01,61.8l30.06-40.52l-4.73,25.32l23.3-21.27l36.14,97.83
		c0,0,0.28-20.07,10.69-37.94c8.97-15.39,24.03-55.78,24.03-55.78c-1.02-3.04-46.2-64.63-38.77-99.73
		C1853.06,715.73,1826.29,666.13,1785.4,694.16z"/>
	<path class="st5" d="M1848.72,863.28l-29.56-115.09l-32.94,35.24l11.34-36.21l-34.87,48.36l14.69-80.42
		c0,0-21.63,16.55-39.19,21.13c-17.57,4.58-42.16,0.8-42.16,0.8l56.92-24.21l32.45-18.71l2.29,34.36l24.43-14.51l-4.2,14.13
		l17-13.36l51.48,32.83L1848.72,863.28z"/>
	<path class="st5" d="M1871.31,453.19c0,0,12.09-61.84,19.1-64.12l18.31,16.23c0,0,5.14,6.13,13.09,14.95v205.08
		c-15.33,2.02-37.06,3.61-45.41,15.69c-14.25,20.62-24.18,16.04-24.18,16.04L1871.31,453.19z"/>
	<path class="st12" d="M1810.89,579.36c0,0-40.42,78.12-115.86,106.04c-24.65,9.12,30.4,0,30.4,0l-24.82,26.37
		c3.8,9.1,43.51-17.62,43.51-17.62l-48.08,42.92c0,0,64.85-6.08,82.07-32.42c17.22-26.34-1.02,61.8-1.02,61.8l30.06-40.52
		l-4.73,25.33l23.3-21.27l22.99,97.4c0,0,47.76-50.51,50.39-48.68c19.89,13.83-48.73-109.24-41.3-144.34
		C1865.24,599.28,1851.77,551.34,1810.89,579.36z"/>
	<path class="st5" d="M1865.84,747.73l-38.7-106.26l-28.81,40.09l5.9-33.98l-29,38.33l13.35-68.88c0,0-21.63,16.55-39.19,21.13
		c-17.57,4.58-31.11-4.17-31.11-4.17l45.87-19.25l32.45-18.71l2.29,34.36l24.43-14.51l-4.2,14.13l16.99-13.36l29.73,40.83V747.73z"
		/>
	<path class="st5" d="M1901.22,581.12l12.15,7.72l-0.92-7.37c0,0,3.48,2,9.37,5.24v219.3c-13.25,3.82-25.02,8.74-30.96,15.7
		l-0.42-46.49l-41.72-132.6C1848.72,642.62,1890.49,584.77,1901.22,581.12z"/>
	<path class="st12" d="M1819.73,495.66c0,0-52.71,67.55-100.22,91.73c-26.88,13.68,26.29,0,26.29,0l-32.98,35.06l30.36-14.02
		l-24.91,25.57c0,0,58.21-7.17,73.11-29.95c14.9-22.79-0.88,53.46-0.88,53.46l25.99-35.05l-4.09,21.91l20.16-18.4
		c0,0,14.92,50.78,20.56,41.3c10.02-16.83,23.82-40.5,23.26-42.18c-0.88-2.63-11.95-50.59-5.53-80.95
		C1877.29,513.77,1855.09,471.41,1819.73,495.66z"/>
	<path class="st5" d="M1876.41,887.2l-18.86-91.81c0,0,46.45-44.94,64.28-54.99v238.06c-11.53,1.71-20.35,4.41-24.74,8.51
		c-25.66,23.97-52.09,15.43-52.09,15.43L1876.41,887.2z"/>
	<path class="st5" d="M1854.41,520.64l-1.26-8.88v61.85c0,0-6.55-44.63-14.92-34.57c-6.21,7.46-18.14,5.18-18.14,5.18l6.94-16.08
		c0,0,5.2-17.07,0,0c-5.2,17.07-32.86,27.19-32.86,27.19s27.78-58.11,17.49-45.85c-10.28,12.26-55.08,4.57-55.08,4.57l38.68-11.48
		l23.9-19.9l19.99,20.7l-3.56,19.09l17.56-10.69"/>
	<path class="st12" d="M1841.04,395.42c0,0-65.93,64.65-87.31,79.91c-21.38,15.27,22.91,0,22.91,0l-28.74,30.54l26.45-12.21
		l-19.85,20.61c0,0,48.87-4.58,61.85-24.43c12.98-19.85-0.76,46.57-0.76,46.57l22.65-30.54l-3.56,19.09l17.56-16.03l9.13,50.61
		c0,0,29.81-49.08,29.04-51.37c-0.76-2.29-19.59-44.84-14-71.29C1882,410.43,1871.85,374.3,1841.04,395.42z"/>
	<polygon class="st5" points="1864.5,389.07 1841.04,456.84 1841.04,427.59 1858.9,384.29 	"/>
	<polygon class="st5" points="1876.41,537 1874.17,520.71 1850.11,541.58 1853.15,573.61 1864.5,547.16 	"/>
</g>
<g>
	<path class="st13" d="M259.78,13.55c2.58,0,2.58-4,0-4C257.2,9.55,257.2,13.55,259.78,13.55L259.78,13.55z"/>
</g>
<g>
	<g>
		<path class="st13" d="M134.13-150.8c0,0.59,0,1.18,0,1.78c0,3.87,6,3.87,6,0c0-0.59,0-1.18,0-1.78
			C140.12-154.67,134.13-154.67,134.13-150.8L134.13-150.8z"/>
	</g>
	<g>
		<path class="st13" d="M652.63-138.92c3.87,0,3.87-6,0-6S648.76-138.92,652.63-138.92L652.63-138.92z"/>
	</g>
	<g>
		<path class="st13" d="M201.12-133.59c3.87,0,3.87-6,0-6C197.25-139.58,197.25-133.59,201.12-133.59L201.12-133.59z"/>
	</g>
	<g>
		<path class="st13" d="M616.74-97.13c1.55,1.52,3.5,2.52,5.68,2.66c1.63,0.1,3-1.44,3-3c0-1.71-1.37-2.9-3-3
			c0.36,0.02-0.46-0.17-0.2-0.05c-0.3-0.14-0.59-0.33-0.86-0.52c0.41,0.28-0.26-0.22-0.37-0.33
			C618.21-104.08,613.97-99.84,616.74-97.13L616.74-97.13z"/>
	</g>
	<g>
		<path class="st13" d="M346.88-215.35c0.59,0,1.18,0,1.78,0c3.87,0,3.87-6,0-6c-0.59,0-1.18,0-1.78,0
			C343.01-221.35,343.01-215.35,346.88-215.35L346.88-215.35z"/>
	</g>
	<g>
		<path class="st13" d="M215.34-208.24c0.59,0,1.18,0,1.78,0c3.87,0,3.87-6,0-6c-0.59,0-1.18,0-1.78,0
			C211.47-214.24,211.47-208.24,215.34-208.24L215.34-208.24z"/>
	</g>
	<g>
		<path class="st13" d="M445.21-117.03c0.07,2.75,2.1,4.6,4.78,4.78c1.63,0.11,3-1.45,3-3c0-1.72-1.37-2.89-3-3
			c0.66,0.04,1.02,0.51,1.23,1.05c-0.27-0.72,0,0.39-0.01,0.17C451.12-120.89,445.12-120.9,445.21-117.03L445.21-117.03z"/>
	</g>
	<g>
		<path class="st13" d="M638.97-202.36c-0.01,0.44,0.17-0.92,0.04-0.34c-0.09,0.29-0.06,0.22,0.1-0.2c0.19-0.39,0.67-0.66,1.08-0.69
			c-1.63,0.11-3,1.28-3,3c0,1.55,1.37,3.11,3,3c2.68-0.18,4.71-2.02,4.78-4.78C645.05-206.23,639.05-206.22,638.97-202.36
			L638.97-202.36z"/>
	</g>
	<g>
		<path class="st13" d="M526.42-188.69c0.59,0,1.18,0,1.78,0c3.87,0,3.87-6,0-6c-0.59,0-1.18,0-1.78,0
			C522.55-194.69,522.55-188.69,526.42-188.69L526.42-188.69z"/>
	</g>
	<g>
		<path class="st13" d="M668.63-206.47c3.87,0,3.87-6,0-6S664.76-206.47,668.63-206.47L668.63-206.47z"/>
	</g>
	<g>
		<path class="st13" d="M579.75-220.69c3.87,0,3.87-6,0-6C575.88-226.69,575.88-220.69,579.75-220.69L579.75-220.69z"/>
	</g>
	<g>
		<path class="st13" d="M135.35-213.58c1.29,0,2.65-0.08,3.63-1.06c1.03-1.03,1.15-2.34,1.15-3.72c0.01-3.87-5.99-3.87-6,0
			c0,0.23-0.14,1.44,0.04,0.45c0.42-1.09,1.11-1.65,2.05-1.69c-0.29,0.03-0.58,0.01-0.87,0.01
			C131.48-219.57,131.48-213.57,135.35-213.58L135.35-213.58z"/>
	</g>
</g>
<g>
	<g>
		<path class="st13" d="M694.05-133.03c0,0.59,0,1.18,0,1.78c0,3.87,6,3.87,6,0c0-0.59,0-1.18,0-1.78
			C700.05-136.9,694.05-136.9,694.05-133.03L694.05-133.03z"/>
	</g>
	<g>
		<path class="st13" d="M1212.55-121.14c3.87,0,3.87-6,0-6C1208.68-127.14,1208.68-121.14,1212.55-121.14L1212.55-121.14z"/>
	</g>
	<g>
		<path class="st13" d="M761.04-115.81c3.87,0,3.87-6,0-6C757.17-121.81,757.17-115.81,761.04-115.81L761.04-115.81z"/>
	</g>
	<g>
		<path class="st13" d="M1176.66-79.36c1.55,1.52,3.5,2.52,5.68,2.66c1.63,0.1,3-1.44,3-3c0-1.71-1.37-2.9-3-3
			c0.36,0.02-0.46-0.17-0.2-0.05c-0.3-0.14-0.59-0.33-0.86-0.52c0.41,0.28-0.26-0.22-0.37-0.33
			C1178.13-86.31,1173.89-82.07,1176.66-79.36L1176.66-79.36z"/>
	</g>
	<g>
		<path class="st13" d="M906.8-197.58c0.59,0,1.18,0,1.78,0c3.87,0,3.87-6,0-6c-0.59,0-1.18,0-1.78,0
			C902.94-203.58,902.94-197.58,906.8-197.58L906.8-197.58z"/>
	</g>
	<g>
		<path class="st13" d="M775.26-190.47c0.59,0,1.18,0,1.78,0c3.87,0,3.87-6,0-6c-0.59,0-1.18,0-1.78,0
			C771.39-196.47,771.39-190.47,775.26-190.47L775.26-190.47z"/>
	</g>
	<g>
		<path class="st13" d="M1005.13-99.26c0.07,2.75,2.1,4.6,4.78,4.78c1.63,0.11,3-1.45,3-3c0-1.72-1.37-2.89-3-3
			c0.66,0.04,1.02,0.51,1.23,1.05c-0.27-0.72,0,0.39-0.01,0.17C1011.04-103.12,1005.04-103.13,1005.13-99.26L1005.13-99.26z"/>
	</g>
	<g>
		<path class="st13" d="M1198.89-184.58c-0.01,0.44,0.17-0.92,0.04-0.34c-0.09,0.29-0.06,0.22,0.1-0.2
			c0.19-0.39,0.67-0.66,1.08-0.69c-1.63,0.11-3,1.28-3,3c0,1.55,1.37,3.11,3,3c2.68-0.18,4.71-2.02,4.78-4.78
			C1204.97-188.45,1198.97-188.44,1198.89-184.58L1198.89-184.58z"/>
	</g>
	<g>
		<path class="st13" d="M1086.34-170.91c0.59,0,1.18,0,1.78,0c3.87,0,3.87-6,0-6c-0.59,0-1.18,0-1.78,0
			C1082.47-176.91,1082.47-170.91,1086.34-170.91L1086.34-170.91z"/>
	</g>
	<g>
		<path class="st13" d="M1228.55-188.69c3.87,0,3.87-6,0-6C1224.68-194.69,1224.68-188.69,1228.55-188.69L1228.55-188.69z"/>
	</g>
	<g>
		<path class="st13" d="M1139.67-202.91c3.87,0,3.87-6,0-6C1135.8-208.91,1135.8-202.91,1139.67-202.91L1139.67-202.91z"/>
	</g>
	<g>
		<path class="st13" d="M695.27-195.8c1.29,0,2.65-0.08,3.63-1.06c1.03-1.03,1.15-2.34,1.15-3.72c0.01-3.87-5.99-3.87-6,0
			c0,0.23-0.14,1.44,0.04,0.45c0.42-1.09,1.11-1.65,2.05-1.69c-0.29,0.03-0.58,0.01-0.87,0.01
			C691.4-201.79,691.4-195.79,695.27-195.8L695.27-195.8z"/>
	</g>
</g>
<g>
	<g>
		<path class="st13" d="M1027.68,153.5c3.87,0,3.87-6,0-6C1023.81,147.5,1023.81,153.5,1027.68,153.5L1027.68,153.5z"/>
	</g>
	<g>
		<path class="st13" d="M576.17,158.83c3.87,0,3.87-6,0-6C572.3,152.83,572.3,158.83,576.17,158.83L576.17,158.83z"/>
	</g>
	<g>
		<path class="st13" d="M991.79,195.28c1.55,1.52,3.5,2.52,5.68,2.66c1.63,0.1,3-1.44,3-3c0-1.71-1.37-2.9-3-3
			c0.36,0.02-0.46-0.17-0.2-0.05c-0.3-0.14-0.59-0.33-0.86-0.52c0.41,0.28-0.26-0.22-0.37-0.33
			C993.26,188.33,989.02,192.57,991.79,195.28L991.79,195.28z"/>
	</g>
	<g>
		<path class="st13" d="M721.93,77.06c0.59,0,1.18,0,1.78,0c3.87,0,3.87-6,0-6c-0.59,0-1.18,0-1.78,0
			C718.06,71.06,718.06,77.06,721.93,77.06L721.93,77.06z"/>
	</g>
	<g>
		<path class="st13" d="M590.39,84.17c0.59,0,1.18,0,1.78,0c3.87,0,3.87-6,0-6c-0.59,0-1.18,0-1.78,0
			C586.52,78.17,586.52,84.17,590.39,84.17L590.39,84.17z"/>
	</g>
	<g>
		<path class="st13" d="M820.26,175.38c0.07,2.75,2.1,4.6,4.78,4.78c1.63,0.11,3-1.45,3-3c0-1.72-1.37-2.89-3-3
			c0.66,0.04,1.02,0.51,1.23,1.05c-0.27-0.72,0,0.39-0.01,0.17C826.17,171.52,820.17,171.51,820.26,175.38L820.26,175.38z"/>
	</g>
	<g>
		<path class="st13" d="M1014.02,90.06c-0.01,0.44,0.17-0.92,0.04-0.34c-0.09,0.29-0.06,0.22,0.1-0.2c0.19-0.39,0.67-0.66,1.08-0.69
			c-1.63,0.11-3,1.28-3,3c0,1.55,1.37,3.11,3,3c2.68-0.18,4.71-2.02,4.78-4.78C1020.1,86.19,1014.1,86.2,1014.02,90.06
			L1014.02,90.06z"/>
	</g>
	<g>
		<path class="st13" d="M901.47,103.73c0.59,0,1.18,0,1.78,0c3.87,0,3.87-6,0-6c-0.59,0-1.18,0-1.78,0
			C897.6,97.73,897.6,103.73,901.47,103.73L901.47,103.73z"/>
	</g>
	<g>
		<path class="st13" d="M1043.68,85.95c3.87,0,3.87-6,0-6C1039.81,79.95,1039.81,85.95,1043.68,85.95L1043.68,85.95z"/>
	</g>
	<g>
		<path class="st13" d="M954.8,71.73c3.87,0,3.87-6,0-6S950.93,71.73,954.8,71.73L954.8,71.73z"/>
	</g>
	<g>
		<path class="st13" d="M510.4,78.84c1.29,0,2.65-0.08,3.63-1.06c1.03-1.03,1.15-2.34,1.15-3.72c0.01-3.87-5.99-3.87-6,0
			c0,0.23-0.14,1.44,0.04,0.45c0.42-1.09,1.11-1.65,2.05-1.69c-0.29,0.03-0.58,0.01-0.87,0.01
			C506.53,72.85,506.53,78.85,510.4,78.84L510.4,78.84z"/>
	</g>
</g>
<g>
	<g>
		<path class="st13" d="M619.32,303.65c0,0.59,0,1.18,0,1.78c0,3.87,6,3.87,6,0c0-0.59,0-1.18,0-1.78
			C625.32,299.78,619.32,299.78,619.32,303.65L619.32,303.65z"/>
	</g>
	<g>
		<path class="st13" d="M1137.82,315.54c3.87,0,3.87-6,0-6C1133.95,309.54,1133.95,315.54,1137.82,315.54L1137.82,315.54z"/>
	</g>
	<g>
		<path class="st13" d="M686.31,320.87c3.87,0,3.87-6,0-6C682.44,314.87,682.44,320.87,686.31,320.87L686.31,320.87z"/>
	</g>
	<g>
		<path class="st13" d="M1101.93,357.32c1.55,1.52,3.5,2.52,5.68,2.66c1.63,0.1,3-1.44,3-3c0-1.71-1.37-2.9-3-3
			c0.36,0.02-0.46-0.17-0.2-0.05c-0.3-0.14-0.59-0.33-0.86-0.52c0.41,0.28-0.26-0.22-0.37-0.33
			C1103.41,350.37,1099.16,354.61,1101.93,357.32L1101.93,357.32z"/>
	</g>
	<g>
		<path class="st13" d="M832.08,239.1c0.59,0,1.18,0,1.78,0c3.87,0,3.87-6,0-6c-0.59,0-1.18,0-1.78,0
			C828.21,233.1,828.21,239.1,832.08,239.1L832.08,239.1z"/>
	</g>
	<g>
		<path class="st13" d="M700.53,246.21c0.59,0,1.18,0,1.78,0c3.87,0,3.87-6,0-6c-0.59,0-1.18,0-1.78,0
			C696.66,240.21,696.66,246.21,700.53,246.21L700.53,246.21z"/>
	</g>
	<g>
		<path class="st13" d="M930.4,337.42c0.07,2.75,2.1,4.6,4.78,4.78c1.63,0.11,3-1.45,3-3c0-1.72-1.37-2.89-3-3
			c0.66,0.04,1.02,0.51,1.23,1.05c-0.27-0.72,0,0.39-0.01,0.17C936.31,333.56,930.31,333.55,930.4,337.42L930.4,337.42z"/>
	</g>
	<g>
		<path class="st13" d="M1124.16,252.1c-0.01,0.44,0.17-0.92,0.04-0.34c-0.09,0.29-0.06,0.22,0.1-0.2c0.19-0.39,0.67-0.66,1.08-0.69
			c-1.63,0.11-3,1.28-3,3c0,1.55,1.37,3.11,3,3c2.68-0.18,4.71-2.02,4.78-4.78C1130.25,248.23,1124.25,248.24,1124.16,252.1
			L1124.16,252.1z"/>
	</g>
	<g>
		<path class="st13" d="M1011.61,265.76c0.59,0,1.18,0,1.78,0c3.87,0,3.87-6,0-6c-0.59,0-1.18,0-1.78,0
			C1007.75,259.77,1007.75,265.76,1011.61,265.76L1011.61,265.76z"/>
	</g>
	<g>
		<path class="st13" d="M1153.82,247.99c3.87,0,3.87-6,0-6C1149.95,241.99,1149.95,247.99,1153.82,247.99L1153.82,247.99z"/>
	</g>
	<g>
		<path class="st13" d="M1064.94,233.77c3.87,0,3.87-6,0-6C1061.07,227.77,1061.07,233.77,1064.94,233.77L1064.94,233.77z"/>
	</g>
	<g>
		<path class="st13" d="M620.54,240.88c1.29,0,2.65-0.08,3.63-1.06c1.03-1.03,1.15-2.34,1.15-3.72c0.01-3.87-5.99-3.87-6,0
			c0,0.23-0.14,1.44,0.04,0.45c0.42-1.09,1.11-1.65,2.05-1.69c-0.29,0.03-0.58,0.01-0.87,0.01
			C616.67,234.89,616.67,240.88,620.54,240.88L620.54,240.88z"/>
	</g>
</g>
<g>
	<g>
		<path class="st13" d="M1167.01,236.72c0,0.59,0,1.18,0,1.78c0,3.87,6,3.87,6,0c0-0.59,0-1.18,0-1.78
			C1173.01,232.85,1167.01,232.85,1167.01,236.72L1167.01,236.72z"/>
	</g>
	<g>
		<path class="st13" d="M1685.52,248.6c3.87,0,3.87-6,0-6C1681.65,242.6,1681.65,248.6,1685.52,248.6L1685.52,248.6z"/>
	</g>
	<g>
		<path class="st13" d="M1234.01,253.94c3.87,0,3.87-6,0-6C1230.14,247.94,1230.14,253.94,1234.01,253.94L1234.01,253.94z"/>
	</g>
	<g>
		<path class="st13" d="M1649.62,290.39c1.55,1.52,3.5,2.52,5.68,2.66c1.63,0.1,3-1.44,3-3c0-1.71-1.37-2.9-3-3
			c0.36,0.02-0.46-0.17-0.2-0.05c-0.3-0.14-0.59-0.33-0.86-0.52c0.41,0.28-0.26-0.22-0.37-0.33
			C1651.1,283.44,1646.85,287.68,1649.62,290.39L1649.62,290.39z"/>
	</g>
	<g>
		<path class="st13" d="M1379.77,172.17c0.59,0,1.18,0,1.78,0c3.87,0,3.87-6,0-6c-0.59,0-1.18,0-1.78,0
			C1375.9,166.17,1375.9,172.17,1379.77,172.17L1379.77,172.17z"/>
	</g>
	<g>
		<path class="st13" d="M1248.23,179.28c0.59,0,1.18,0,1.78,0c3.87,0,3.87-6,0-6c-0.59,0-1.18,0-1.78,0
			C1244.36,173.28,1244.36,179.28,1248.23,179.28L1248.23,179.28z"/>
	</g>
	<g>
		<path class="st13" d="M1478.09,270.49c0.06,2.75,2.1,4.6,4.78,4.78c1.63,0.11,3-1.45,3-3c0-1.72-1.37-2.89-3-3
			c0.66,0.04,1.02,0.51,1.23,1.05c-0.27-0.72,0,0.39-0.01,0.17C1484.01,266.63,1478.01,266.62,1478.09,270.49L1478.09,270.49z"/>
	</g>
	<g>
		<path class="st13" d="M1671.85,185.16c-0.01,0.44,0.17-0.92,0.04-0.34c-0.09,0.29-0.06,0.22,0.1-0.2
			c0.19-0.39,0.67-0.66,1.08-0.69c-1.63,0.11-3,1.28-3,3c0,1.55,1.37,3.11,3,3c2.68-0.18,4.71-2.02,4.78-4.78
			C1677.94,181.29,1671.94,181.3,1671.85,185.16L1671.85,185.16z"/>
	</g>
	<g>
		<path class="st13" d="M1559.31,198.83c0.59,0,1.19,0,1.78,0c3.87,0,3.87-6,0-6c-0.59,0-1.18,0-1.78,0
			C1555.44,192.83,1555.44,198.83,1559.31,198.83L1559.31,198.83z"/>
	</g>
	<g>
		<path class="st13" d="M1701.52,181.05c3.87,0,3.87-6,0-6C1697.65,175.05,1697.65,181.05,1701.52,181.05L1701.52,181.05z"/>
	</g>
	<g>
		<path class="st13" d="M1612.64,166.83c3.87,0,3.87-6,0-6C1608.77,160.83,1608.77,166.83,1612.64,166.83L1612.64,166.83z"/>
	</g>
	<g>
		<path class="st13" d="M1168.23,173.94c1.29,0,2.65-0.08,3.63-1.06c1.03-1.03,1.15-2.34,1.15-3.72c0.01-3.87-5.99-3.87-6,0
			c0,0.23-0.14,1.44,0.04,0.45c0.42-1.09,1.11-1.65,2.05-1.69c-0.29,0.03-0.58,0.01-0.87,0.01
			C1164.36,167.95,1164.36,173.95,1168.23,173.94L1168.23,173.94z"/>
	</g>
</g>
<g>
	<g>
		<path class="st13" d="M356.09,198.83c3.87,0,3.87-6,0-6C352.22,192.83,352.22,198.83,356.09,198.83L356.09,198.83z"/>
	</g>
	<g>
		<path class="st13" d="M320.2,240.61c1.55,1.52,3.5,2.52,5.68,2.66c1.63,0.1,3-1.44,3-3c0-1.71-1.37-2.9-3-3
			c0.36,0.02-0.46-0.17-0.2-0.05c-0.3-0.14-0.59-0.33-0.86-0.52c0.41,0.28-0.26-0.22-0.37-0.33
			C321.67,233.66,317.43,237.9,320.2,240.61L320.2,240.61z"/>
	</g>
	<g>
		<path class="st13" d="M50.34,122.39c0.59,0,1.18,0,1.78,0c3.87,0,3.87-6,0-6c-0.59,0-1.18,0-1.78,0
			C46.47,116.39,46.47,122.39,50.34,122.39L50.34,122.39z"/>
	</g>
	<g>
		<path class="st13" d="M148.67,220.71c0.07,2.75,2.1,4.6,4.78,4.78c1.63,0.11,3-1.45,3-3c0-1.72-1.37-2.89-3-3
			c0.66,0.04,1.02,0.51,1.23,1.05c-0.27-0.72,0,0.39-0.01,0.17C154.58,216.85,148.58,216.84,148.67,220.71L148.67,220.71z"/>
	</g>
	<g>
		<path class="st13" d="M342.43,135.39c-0.01,0.44,0.17-0.92,0.04-0.34c-0.09,0.29-0.06,0.22,0.1-0.2c0.19-0.39,0.67-0.66,1.08-0.69
			c-1.63,0.11-3,1.28-3,3c0,1.55,1.37,3.11,3,3c2.68-0.18,4.71-2.02,4.78-4.78C348.51,131.52,342.51,131.53,342.43,135.39
			L342.43,135.39z"/>
	</g>
	<g>
		<path class="st13" d="M229.88,149.05c0.59,0,1.18,0,1.78,0c3.87,0,3.87-6,0-6c-0.59,0-1.18,0-1.78,0
			C226.01,143.06,226.01,149.05,229.88,149.05L229.88,149.05z"/>
	</g>
	<g>
		<path class="st13" d="M372.09,131.28c3.87,0,3.87-6,0-6C368.22,125.28,368.22,131.28,372.09,131.28L372.09,131.28z"/>
	</g>
	<g>
		<path class="st13" d="M283.21,117.06c3.87,0,3.87-6,0-6C279.34,111.06,279.34,117.06,283.21,117.06L283.21,117.06z"/>
	</g>
</g>
<g>
	<path class="st13" d="M361.1-1.26c2.58,0,2.58-4,0-4S358.52-1.26,361.1-1.26L361.1-1.26z"/>
</g>
<g>
	<path class="st13" d="M90.68-29.34c0,0.59,0,1.18,0,1.78c0,2.58,4,2.58,4,0c0-0.59,0-1.18,0-1.78
		C94.68-31.92,90.68-31.92,90.68-29.34L90.68-29.34z"/>
</g>
<line class="st13" x1="551.31" y1="-15.71" x2="553.09" y2="-15.71"/>
<polygon class="st14" points="986.13,-140.44 994.48,-148.99 985.48,-141.65 985.04,-152.88 984.09,-141.92 975.61,-148.99 
	984,-140.62 971.7,-139.55 983.53,-139.55 975.61,-130.11 984.55,-138.86 985.04,-126.22 985.76,-138.77 994.48,-130.11 
	986.5,-139.55 998.39,-139.55 "/>
<polygon class="st14" points="1438.93,-184.88 1447.27,-193.43 1438.28,-186.09 1437.84,-197.32 1436.88,-186.36 1428.41,-193.43 
	1436.8,-185.06 1424.5,-183.99 1436.33,-183.99 1428.41,-174.55 1437.35,-183.3 1437.84,-170.66 1438.56,-183.21 1447.27,-174.55 
	1439.3,-183.99 1451.19,-183.99 "/>
<polygon class="st14" points="1303.13,-33.2 1309.36,-39.59 1302.64,-34.1 1302.31,-42.5 1301.6,-34.31 1295.27,-39.59 
	1301.53,-33.34 1292.35,-32.54 1301.19,-32.54 1295.27,-25.48 1301.95,-32.02 1302.31,-22.58 1302.85,-31.95 1309.36,-25.48 
	1303.41,-32.54 1312.29,-32.54 "/>
<polygon class="st14" points="807.26,11.08 813.49,4.69 806.77,10.18 806.44,1.78 805.73,9.97 799.4,4.69 805.66,10.95 
	796.48,11.74 805.32,11.74 799.4,18.8 806.08,12.26 806.44,21.7 806.98,12.33 813.49,18.8 807.54,11.74 816.42,11.74 "/>
<polygon class="st14" points="227.9,-26.2 234.13,-32.59 227.41,-27.11 227.09,-35.51 226.37,-27.31 220.04,-32.59 226.3,-26.34 
	217.12,-25.54 225.96,-25.54 220.04,-18.49 226.72,-25.02 227.09,-15.58 227.62,-24.95 234.13,-18.49 228.18,-25.54 237.06,-25.54 
	"/>
<polygon class="st14" points="1491.51,-7.23 1500.9,-16.85 1490.78,-8.59 1490.29,-21.24 1489.21,-8.9 1479.67,-16.85 
	1489.11,-7.43 1475.27,-6.23 1488.59,-6.23 1479.67,4.4 1489.74,-5.45 1490.29,8.78 1491.1,-5.35 1500.9,4.4 1491.93,-6.23 
	1505.31,-6.23 "/>
<g>
	<g>
		<path class="st13" d="M1355.79,50.59c2.58,0,2.58-4,0-4S1353.22,50.59,1355.79,50.59L1355.79,50.59z"/>
	</g>
	<g>
		<path class="st13" d="M1494.23-161.17c0.22,3.17,2.85,3.77,5.55,3.78c2.58,0,2.58-4,0-4c-0.46,0-0.92-0.01-1.39-0.03
			c-0.72-0.04-0.2-0.18-0.17,0.26C1498.05-163.73,1494.05-163.75,1494.23-161.17L1494.23-161.17z"/>
	</g>
	<g>
		<path class="st13" d="M1794.86-127.17c2.24,0,3.42-0.81,4.97-2.36c1.83-1.83-1-4.65-2.83-2.83c-0.4,0.4-0.81,0.9-1.28,1.2
			c0.31-0.19-0.27,0.01,0.03-0.02c-0.29,0.02-0.59,0.01-0.88,0.01C1792.28-131.17,1792.28-127.17,1794.86-127.17L1794.86-127.17z"/>
	</g>
	<g>
		<path class="st13" d="M1892.63,89.69c2.71-0.01,5.33-0.61,5.55-3.78c0.18-2.58-3.82-2.56-4,0c0.02-0.29,0.58-0.42-0.07-0.27
			c-0.46,0.11-1.02,0.04-1.49,0.04C1890.05,85.7,1890.05,89.7,1892.63,89.69L1892.63,89.69z"/>
	</g>
	<g>
		<path class="st13" d="M1592.22,237.24c0.59,0,1.19,0,1.78,0c2.58,0,2.58-4,0-4c-0.59,0-1.18,0-1.78,0
			C1589.64,233.24,1589.64,237.24,1592.22,237.24L1592.22,237.24z"/>
	</g>
	<g>
		<path class="st13" d="M1498-192.95c0.59,0,1.18,0,1.78,0c2.58,0,2.58-4,0-4c-0.59,0-1.18,0-1.78,0
			C1495.43-196.95,1495.43-192.95,1498-192.95L1498-192.95z"/>
	</g>
	<g>
		<path class="st13" d="M1314.91,29.26c2.58,0,2.58-4,0-4C1312.33,25.26,1312.33,29.26,1314.91,29.26L1314.91,29.26z"/>
	</g>
	<g>
		<path class="st13" d="M1753.98-100.51c2.58,0,2.58-4,0-4S1751.4-100.51,1753.98-100.51L1753.98-100.51z"/>
	</g>
	<g>
		<path class="st13" d="M1659.76,73.69c2.58,0,2.58-4,0-4S1657.19,73.69,1659.76,73.69L1659.76,73.69z"/>
	</g>
	<g>
		<path class="st13" d="M1624.43,249.46c0-0.1,0.07-1.1-0.01-0.72c-0.22,0.6-0.58,0.92-1.08,0.95c0.29-0.03,0.58-0.01,0.87-0.01
			c2.58-0.01,2.58-4,0-4c-1.01,0-2.15,0-2.92,0.77c-0.82,0.83-0.85,1.92-0.85,3.01C1620.43,252.04,1624.43,252.03,1624.43,249.46
			L1624.43,249.46z"/>
	</g>
	<g>
		<path class="st13" d="M1855.3,87.92c2.58,0,2.58-4,0-4S1852.73,87.92,1855.3,87.92L1855.3,87.92z"/>
	</g>
	<g>
		<path class="st13" d="M1266.69,107.25c-0.02,0.25-0.55,0.61-0.73,0.82c-0.7,0.8-0.98,1.68-1.05,2.73c-0.17,2.58,3.83,2.56,4,0
			c0.02-0.25,0.55-0.62,0.73-0.83c0.69-0.8,0.98-1.68,1.05-2.73C1270.87,104.67,1266.87,104.69,1266.69,107.25L1266.69,107.25z"/>
	</g>
	<g>
		<path class="st13" d="M1202.92-235.61c0.59,0,1.18,0,1.78,0c2.58,0,2.58-4,0-4c-0.59,0-1.18,0-1.78,0
			C1200.34-239.61,1200.34-235.61,1202.92-235.61L1202.92-235.61z"/>
	</g>
	<g>
		<path class="st13" d="M1238.25-223.39c0,0.59,0,1.18,0,1.78c0,2.58,4,2.58,4,0c0-0.59,0-1.18,0-1.78
			C1242.25-225.97,1238.25-225.97,1238.25-223.39L1238.25-223.39z"/>
	</g>
	<g>
		<path class="st13" d="M1723.54-216.28c0,0.59,0,1.18,0,1.78c0,2.58,4,2.58,4,0c0-0.59,0-1.18,0-1.78
			C1727.54-218.86,1723.54-218.86,1723.54-216.28L1723.54-216.28z"/>
	</g>
	<g>
		<path class="st13" d="M1846.41-220.05c-0.59,0-1.18,0-1.78,0c-2.58,0-2.58,4,0,4c0.59,0,1.18,0,1.78,0
			C1848.99-216.05,1848.99-220.05,1846.41-220.05L1846.41-220.05z"/>
	</g>
	<g>
		<path class="st13" d="M1215.59-54.51c-0.03,0.5-1.45,0.42-0.84,0.68c0.39,0.17,0.68,0.45,0.98,0.73c1.88,1.76,4.72-1.06,2.83-2.83
			c-1.22-1.14-2.77-2.19-4.52-1.84c-1.62,0.32-2.34,1.74-2.45,3.26C1211.41-51.94,1215.41-51.96,1215.59-54.51L1215.59-54.51z"/>
	</g>
	<g>
		<path class="st13" d="M1369.79-223.39c0.05,2.19,1.65,3.63,3.78,3.78c2.58,0.18,2.56-3.82,0-4c-0.16-0.01,0.2,0.14,0.26,0.32
			c-0.2-0.53-0.04,0.01-0.04-0.09C1373.73-225.96,1369.73-225.97,1369.79-223.39L1369.79-223.39z"/>
	</g>
	<g>
		<path class="st13" d="M1546-38.29c2.19-0.05,3.63-1.65,3.78-3.78c0.17-2.58-3.82-2.56-4,0c-0.01,0.16,0.14-0.2,0.32-0.27
			c-0.53,0.2,0.01,0.04-0.09,0.04C1543.42-42.23,1543.42-38.23,1546-38.29L1546-38.29z"/>
	</g>
	<g>
		<path class="st13" d="M1920.85-246.5c0,0.21,0,0.41-0.01,0.62c-0.07,0.72,0.2,0.38,0.81-1.02c0.34-0.09,0.67-0.18,1.01-0.27
			c0.92,0.44,1.15,0.48,0.68,0.11c-0.3-0.27-0.58-0.57-0.87-0.85c-1.83-1.82-4.66,1-2.83,2.83c0.94,0.93,2.05,2.25,3.54,1.84
			c1.51-0.42,1.65-1.95,1.65-3.26C1924.86-249.08,1920.86-249.08,1920.85-246.5L1920.85-246.5z"/>
	</g>
	<g>
		<path class="st13" d="M1889.08-61.4c2.58,0,2.58-4,0-4S1886.5-61.4,1889.08-61.4L1889.08-61.4z"/>
	</g>
	<g>
		<path class="st13" d="M1586.66-219.83c0,0.59,0,1.19,0,1.78c0,2.58,4,2.58,4,0c0-0.59,0-1.19,0-1.78
			C1590.66-222.41,1586.66-222.41,1586.66-219.83L1586.66-219.83z"/>
	</g>
	<g>
		<path class="st13" d="M1089.15,29.26c0.59,0,1.19,0,1.78,0c2.58,0,2.58-4,0-4c-0.59,0-1.18,0-1.78,0
			C1086.57,25.26,1086.57,29.26,1089.15,29.26L1089.15,29.26z"/>
	</g>
	<g>
		<path class="st13" d="M1345.13-86.29c0.59,0,1.18,0,1.78,0c2.58,0,2.58-4,0-4c-0.59,0-1.18,0-1.78,0
			C1342.55-90.29,1342.55-86.29,1345.13-86.29L1345.13-86.29z"/>
	</g>
	<g>
		<path class="st13" d="M1817.75-139.84c-0.01,0.16,0.14-0.2,0.32-0.26c-0.53,0.2,0.01,0.04-0.09,0.04c-2.58,0.06-2.58,4.06,0,4
			c2.19-0.05,3.63-1.65,3.78-3.78C1821.92-142.42,1817.92-142.4,1817.75-139.84L1817.75-139.84z"/>
	</g>
	<g>
		<path class="st13" d="M1860.41-226.94c-0.01,0.16,0.14-0.2,0.32-0.26c-0.53,0.2,0.01,0.04-0.09,0.04c-2.58,0.06-2.58,4.06,0,4
			c2.19-0.05,3.63-1.65,3.78-3.78C1864.59-229.52,1860.59-229.5,1860.41-226.94L1860.41-226.94z"/>
	</g>
	<g>
		<path class="st13" d="M1673.99,71.92c0.59,0,1.18,0,1.78,0c2.58,0,2.58-4,0-4c-0.59,0-1.18,0-1.78,0
			C1671.41,67.92,1671.41,71.92,1673.99,71.92L1673.99,71.92z"/>
	</g>
	<g>
		<path class="st13" d="M1336.24-73.85c2.58,0,2.58-4,0-4C1333.66-77.85,1333.66-73.85,1336.24-73.85L1336.24-73.85z"/>
	</g>
	<g>
		<path class="st13" d="M1686.43-226.72c2.58,0,2.58-4,0-4S1683.85-226.72,1686.43-226.72L1686.43-226.72z"/>
	</g>
	<g>
		<path class="st13" d="M1202.92,39.92c1.18,0,2.37,0,3.55,0c2.58,0,2.58-4,0-4c-1.18,0-2.37,0-3.55,0
			C1200.34,35.92,1200.34,39.92,1202.92,39.92L1202.92,39.92z"/>
	</g>
	<g>
		<path class="st13" d="M1794.86-11.63c2.19-0.05,3.63-1.65,3.78-3.78c0.18-2.58-3.82-2.56-4,0c-0.01,0.16,0.14-0.2,0.32-0.27
			c-0.53,0.2,0.01,0.04-0.09,0.04C1792.29-15.57,1792.28-11.57,1794.86-11.63L1794.86-11.63z"/>
	</g>
	<g>
		<path class="st13" d="M1891.22-136.65c0.9,0.96,0.89,1.54,0,2.5c-1.76,1.88,1.07,4.72,2.83,2.83c2.41-2.58,2.41-5.58,0-8.16
			C1892.28-141.37,1889.46-138.53,1891.22-136.65L1891.22-136.65z"/>
	</g>
	<g>
		<path class="st13" d="M1638.43-95.18c0.97,0,2.06-0.09,2.58-1.06c0.22-0.4,0.26-0.67,0.3-1.12c0.01-0.18-0.01-0.12-0.04,0.19
			c-0.04,0.2,0.23-0.26,0.34-0.37c1.76-1.88-1.07-4.72-2.83-2.83c-0.89,0.95-1.35,1.79-1.48,3.08c0.09-0.34,0.18-0.67,0.27-1.01
			c0.58-1.08,2.11-0.88,0.84-0.88C1635.86-99.17,1635.85-95.17,1638.43-95.18L1638.43-95.18z"/>
	</g>
	<g>
		<path class="st13" d="M1222.84-124.21c0.59,0.59,1.18,1.18,1.78,1.78c1.83,1.83,4.65-1,2.83-2.83c-0.59-0.59-1.18-1.18-1.78-1.78
			C1223.84-128.86,1221.01-126.03,1222.84-124.21L1222.84-124.21z"/>
	</g>
	<g>
		<path class="st13" d="M1686.79,2.01c0.59,0.59,1.18,1.18,1.78,1.78c1.83,1.83,4.66-1,2.83-2.83c-0.59-0.59-1.18-1.18-1.78-1.78
			C1687.8-2.65,1684.97,0.18,1686.79,2.01L1686.79,2.01z"/>
	</g>
	<g>
		<path class="st13" d="M1485.56,82.14c-0.59,0-1.18,0-1.78,0c-2.58,0-2.58,4,0,4c0.59,0,1.18,0,1.78,0
			C1488.14,86.14,1488.14,82.14,1485.56,82.14L1485.56,82.14z"/>
	</g>
	<g>
		<path class="st13" d="M1809.08,231.9c2.58,0,2.58-4,0-4S1806.51,231.9,1809.08,231.9L1809.08,231.9z"/>
	</g>
	<g>
		<path class="st13" d="M1695.32-132.51c0.59,0,1.18,0,1.78,0c2.58,0,2.58-4,0-4c-0.59,0-1.18,0-1.78,0
			C1692.74-136.51,1692.74-132.51,1695.32-132.51L1695.32-132.51z"/>
	</g>
	<g>
		<path class="st13" d="M1629.55-157.39c2.58,0,2.58-4,0-4C1626.97-161.39,1626.97-157.39,1629.55-157.39L1629.55-157.39z"/>
	</g>
	<g>
		<path class="st13" d="M1656.74,105.32c-0.36-0.09-0.73-0.18-1.09-0.28c-0.65,1.11-1.3,2.23-1.95,3.34
			c0.66,0.26,1.32,0.53,1.98,0.79C1658.07,110.14,1659.11,106.27,1656.74,105.32c-0.66-0.26-1.32-0.53-1.97-0.79
			c-1.94-0.78-3.27,2.02-1.95,3.34c0.91,0.91,1.53,0.97,2.86,1.3C1658.18,109.8,1659.24,105.95,1656.74,105.32L1656.74,105.32z"/>
	</g>
	<g>
		<path class="st13" d="M1730.87,91.47c2.58,0,2.58-4,0-4C1728.29,87.47,1728.29,91.47,1730.87,91.47L1730.87,91.47z"/>
	</g>
</g>
<polygon class="st14" points="1827.46,-201.76 1835.8,-210.32 1826.81,-202.97 1826.37,-214.21 1825.41,-203.25 1816.94,-210.32 
	1825.32,-201.95 1813.03,-200.87 1824.86,-200.87 1816.94,-191.43 1825.87,-200.19 1826.37,-187.55 1827.08,-200.09 1835.8,-191.43 
	1827.83,-200.87 1839.71,-200.87 "/>
<polygon class="st14" points="1691.65,-53.05 1697.89,-59.44 1691.17,-53.95 1690.84,-62.35 1690.13,-54.16 1683.79,-59.44 
	1690.06,-53.19 1680.87,-52.39 1689.71,-52.39 1683.79,-45.34 1690.47,-51.87 1690.84,-42.43 1691.38,-51.8 1697.89,-45.34 
	1691.93,-52.39 1700.81,-52.39 "/>
<polygon class="st14" points="1880.04,-24.11 1889.42,-33.74 1879.31,-25.47 1878.81,-38.12 1877.74,-25.79 1868.2,-33.74 
	1877.64,-24.32 1863.8,-23.11 1877.12,-23.11 1868.2,-12.49 1878.26,-22.33 1878.81,-8.11 1879.62,-22.23 1889.42,-12.49 
	1880.46,-23.11 1893.83,-23.11 "/>
<polygon class="st14" points="512.67,-50.65 523.63,-61.89 511.82,-52.24 511.24,-66.99 509.99,-52.6 498.85,-61.89 509.86,-50.89 
	493.71,-49.48 509.25,-49.48 498.85,-37.07 510.59,-48.57 511.24,-31.97 512.19,-48.45 523.63,-37.07 513.16,-49.48 528.77,-49.48 
	"/>
<polygon class="st14" points="60.38,-170.7 69.15,-179.69 59.7,-171.97 59.24,-183.78 58.23,-172.26 49.32,-179.69 58.14,-170.89 
	45.21,-169.77 57.65,-169.77 49.32,-159.84 58.72,-169.05 59.24,-155.76 59.99,-168.94 69.15,-159.84 60.77,-169.77 73.26,-169.77 
	"/>
<path class="st15" d="M1181.86,802.39c7.79,0.18,13.5-4.9,1.03-5.49c-12.48-0.59-81.57-5.17-81.57-5.17s94.51-4.98,98.75-4.98
	c3.78,0-3.61-7.48-16.72-8.23c-27.95-1.6-27.86-1.59-110.41-6.32c0,0,65.17-8.76,75.69-7.82c11.33,1.01-85.15-9.12-85.15-9.12
	l76.86-7.52l-68.58-10.72l119.3-18.89l-63.33,1.32L935.74,729.6l65.06,12.62l-147.27-3.49l56.99,9l-284.6,11.43l203.32,11.24
	c0,0-166.84,6.22-163.3,10.72c3.72,4.71,123.55,13.16,102.89,11.04c0,0,77.05,5.6,38.72,7.65c-77.55,4.13-239.96-1.9-228.98,2.05
	c16.41,5.9,221.93,11.58,221.93,11.58s-115.64,15.35-97.9,15.37c17.74,0.01,134.81,4.21,134.81,4.21l-60.25,12.14l184.74,20.45
	l216.1-20.28l-75.69-12.31c0,0,69-5.46,79.19-6.32c10.19-0.87,11.79-5.93-4.12-6.54c-15.92-0.6-110.55-15.86-110.55-15.86
	S1174.06,802.21,1181.86,802.39z"/>
<path class="st16" d="M1095.08,811.28c4.99,0.15,8.66-4.1,0.66-4.59c-8-0.49-52.29-4.33-52.29-4.33s60.59-4.17,63.3-4.17
	c2.42,0-2.32-6.26-10.72-6.89c-17.91-1.34-17.86-1.33-70.78-5.29c0,0,41.78-7.32,48.52-6.54c7.26,0.85-54.58-7.63-54.58-7.63
	l49.27-6.29l-43.96-8.97l75.18-8.84l-50.44-4.36h-28.66l-83.27,7l41.71,10.57l-94.41-2.92l36.53,7.53l-182.44,9.56l130.34,9.41
	c0,0-106.96,5.21-104.68,8.97c2.39,3.94,79.2,11.01,65.96,9.24c0,0,49.39,4.69,24.82,6.4c-49.71,3.46-153.83-1.59-146.79,1.72
	c10.52,4.94,142.27,9.69,142.27,9.69s-74.13,12.85-62.76,12.86c11.37,0.01,86.42,3.52,86.42,3.52l-38.62,10.16l118.43,17.12
	l138.53-16.97l-48.52-10.3c0,0,44.23-4.57,50.77-5.29c6.53-0.73,7.56-4.97-2.64-5.47c-10.2-0.51-70.87-13.27-70.87-13.27
	S1090.08,811.13,1095.08,811.28z"/>
<polyline class="st16" points="982.24,731.37 1107.38,721.61 1053.9,737.37 1097.56,747.73 1020.57,743.37 982.24,731.37 "/>
<g>
	<path class="st17" d="M1406.12,953.45h-24.67c0,0-14.04-8.31-15.02-31.8c-0.72-17.2,1.78,2.25,12.42,11.03
		c5.19,4.28-3.41-8.43-3.57-29.9c-0.07-9.43,2.78-20.24,7.46-32.41c1.62-4.22,15.71,23.49,14.7,53.23c0,0,6.06-18.82,4.77-35.7
		c-1.3-16.88-4.87-32.46-4.54-35.05c0.7-5.54,24.66,20.78,24.02,59.07c-0.65,38.3,3.9,8.44,7.79,1.3c3.9-7.14,10.9-11.81,7.79-22.72
		c-1.3-4.55,6.92,8.7,9.09,29.86c2.59,25.32-12.99,33.11-12.99,33.11H1406.12z"/>
	<path class="st18" d="M1431.62,922.25c1.39,10.55-2.61,21.66-10.83,23.22c-1.95,0.37-3.59-4.04-4-10.22
		c-0.91-13.67-12.28-21.79-10.3-16.89c4.12,10.2-5.71,22.81-5.78,25.78c-1.45-1.23-4.68-4.59-6.36-13.11
		c-0.9-4.55-7.11-12.67-7.11-12.67c-2.86,7.43-2.04,16.69-0.63,23.84l-0.02-0.07c-0.07-0.34-5.38-0.43-11.38-6.88
		c-6-6.44,2.45,13.19,13.08,18.22l1.39-0.03l38.11,0.14C1446.66,940.92,1430.92,916.95,1431.62,922.25z"/>
</g>
<path class="st19" d="M1457.9,956.76c0,3.09-2.5,5.6-5.6,5.6h-35.91c-3.09,0-5.6-2.51-5.6-5.6l0,0c0-3.09,2.51-5.6,5.6-5.6h35.91
	C1455.39,951.17,1457.9,953.67,1457.9,956.76L1457.9,956.76z"/>
<path class="st19" d="M1407.65,956.76c0,3.09-2.51,5.6-5.6,5.6h-35.91c-3.09,0-5.6-2.51-5.6-5.6l0,0c0-3.09,2.5-5.6,5.6-5.6h35.91
	C1405.15,951.17,1407.65,953.67,1407.65,956.76L1407.65,956.76z"/>
<path class="st19" d="M1434.35,962.36c0,3.09-2.51,5.6-5.6,5.6h-35.91c-3.09,0-5.6-2.51-5.6-5.6l0,0c0-3.09,2.51-5.6,5.6-5.6h35.91
	C1431.84,956.77,1434.35,959.27,1434.35,962.36L1434.35,962.36z"/>
<path class="st17" d="M1521.93,776.36l-37.52,21.78l30.34,0.44l-30.34,25.78l45.89-2.65c0,0-43.67,28.9-57.45,34.22
	c0,0,35.05-7.97,49.08-19.33c14.03-11.35,15.36-21.51,15.36-21.51l-35.88,1.05l26.54-24.79l-31.43,2.82L1521.93,776.36z"/>
<polygon class="st17" points="1582.8,821.71 1570.06,832.81 1562.36,855.93 1603.51,827.39 1603.51,859.47 1627.35,832.91 
	1606.29,845.19 1607.66,816.15 1570.36,845.19 "/>
<path class="st17" d="M1538.15,745.26c0,0,46.3-19.24,50.52-31.81c1.93-5.76,8.7,26.96,8.7,41.15c0,4,18.71-19.92,18.71-19.92v19.03
	l15.69-10.34l24.91,61.12l-20.16-67.68l-16.68,5.33v-18.32l-16.55,10.85l-10.16-29.18C1593.13,705.49,1561.85,732.99,1538.15,745.26
	"/>
<path class="st17" d="M1721.79,776.36l-28.84,24.59l25.32-1.93l-19.55,25.77l19.55-3.1l-17.66,23.79c0,0,22.12-6.92,29.23-13.59
	l-13.78,1.33l10.42-18.16l-16.64,1.05l14.22-21.97h-16.44L1721.79,776.36z"/>
<polygon class="st17" points="1608.1,631.05 1603.01,662.38 1625.63,635.58 1624.41,657.49 1641.64,646.71 1660.63,713.78 
	1648.41,638.04 1628.51,645.71 1628.51,624.58 1608.1,645.98 "/>
<polygon class="st17" points="1649.18,926.35 1619.04,944.27 1657.57,935.26 1619.84,967.96 1662.54,978.35 1631.85,965.01 
	1668.17,930.68 1642.94,933.68 "/>
<polygon class="st17" points="1626.45,833.39 1619.04,906.69 1631.04,830.69 "/>
<path class="st17" d="M1675.11,876.81c-0.6,0.54-63.82,38.2-63.82,38.2l53.55-8.33l-15.67,19.66l24.86-23.6l-40.86,3.93
	L1675.11,876.81z"/>
<path class="st17" d="M1558.03,681.26c0.27,0.89-31.73,24.23-31.73,24.23l28.89-6.33l-22.66,30.44l37.03-37.53l-25.86,4.11
	L1558.03,681.26z"/>
<path class="st17" d="M1569.55,591.94l-22.79,13.78l11.4-1.78l-16.7,24.21l34.62-17.09c0,0-35.07,38.39-32.39,36.41
	c0.98-0.72,41.72-27.76,41.72-27.76l-15.86,4.88l12.52-19.53l-29.11,13.19l12.28-19.44L1569.55,591.94z"/>
<polygon class="st17" points="1617.51,535.39 1615.51,568.38 1635.04,541.05 1631.73,562.25 1658.79,537.25 1638.63,551.05 
	1638.63,532.58 1619.04,550.49 "/>
<path class="st3" d="M1337.54,985.01c-0.74-0.74,149.99,0,149.99,0s19.66,6.33,12.33,7c-7.33,0.67-22,3.33-22,3.33l15.33,1.67
	h-65.33c0,0-58.98,2.67-54.66,0c4.33-2.67,23.33-5.41,23.33-5.41S1343.87,991.34,1337.54,985.01z"/>
<path class="st20" d="M1373.87,863.02c6.67-14.67,13.33-37.33,13.33-54.66c0-36-21.33-52-40-79.99
	c-38.66-59.99-13.99-116.95,26-171.61c38.66-54.66,46.31-105.85-28.67-193.69c14.67,10.67,90.64,27.76,104.83,68.45
	c17.83,51.13-13.74,75.06-24.4,105.73c-10.67,26.66-43.53,51.66-40.87,80.99c4,38.66,67.1,47.46,73.76,80.79
	c6.67,38.66-26.66,70.66-33.33,105.32c-5.33,30.66,17.33,67.99,1.33,94.66c4-17.33,9.33-44-9.33-54.66c-18.66-12-36,8-40,18.66"/>
<path class="st20" d="M1369.87,528.39c44-55.09,7.33-107.17-32-129.32c17.33,18.66,32,42.42,37.33,67.75
	C1377.87,476.15,1377.33,519.56,1369.87,528.39"/>
<path class="st20" d="M1445.41,654.32c-13.21,3.67-29.77-6.11-33.77-12.44c-9.42-14.92-15.01-29-8.89-44.44
	c14.23-35.88,54.12-60.7,57.77-84.44c-3.55,28.44-24.89,50.66-37.33,74.66C1411.63,609.88,1415.19,648.1,1445.41,654.32"/>
<path class="st17" d="M1034.22,789.72c-0.19,0.03-0.43,0.36-0.14,0.89c0.01,0.02,0.02,0.03,0.03,0.05c0.05-0.08,0.07-0.14,0.11-0.21
	C1034.22,790.21,1034.22,789.97,1034.22,789.72z"/>
<path class="st17" d="M1034.22,789.72c0,0.25,0,0.48,0,0.73C1034.47,789.92,1034.38,789.7,1034.22,789.72z"/>
<path class="st17" d="M1034.11,790.66c0.03,0.07,0.07,0.13,0.11,0.19c0-0.13,0-0.27,0-0.4
	C1034.18,790.52,1034.16,790.58,1034.11,790.66z"/>
<path class="st7" d="M628.07,502.31l-4.58,17.78l-14.22,7.11l-12.24,19.55l12.24,7.11c0,0-77.83,49.77-72.52,49.77
	c5.31,0,48.61-10.67,48.61-10.67l312.45,99.25l22.32-20.33L628.07,502.31z"/>
<g>
	<path class="st20" d="M1622.58,304.69c0,43.57-35.32,78.89-78.89,78.89c-43.57,0-78.89-35.32-78.89-78.89s35.32-78.89,78.89-78.89
		C1587.26,225.8,1622.58,261.12,1622.58,304.69z"/>
	<path class="st21" d="M1585.9,262.78c0,7.47-6.06,13.53-13.53,13.53c-7.47,0-13.54-6.06-13.54-13.53s6.06-13.53,13.54-13.53
		C1579.84,249.25,1585.9,255.3,1585.9,262.78z"/>
	<path class="st21" d="M1599.25,288.81c0,3.7-3,6.69-6.69,6.69c-3.7,0-6.69-3-6.69-6.69c0-3.7,3-6.69,6.69-6.69
		C1596.25,282.12,1599.25,285.11,1599.25,288.81z"/>
	<path class="st21" d="M1572.8,302.11c0,4.74-3.85,8.59-8.59,8.59c-4.74,0-8.59-3.85-8.59-8.59c0-4.74,3.85-8.59,8.59-8.59
		C1568.94,293.52,1572.8,297.37,1572.8,302.11z"/>
</g>
</svg>
